<svg width="338" height="270" viewBox="0 0 338 270" fill="none" xmlns="http://www.w3.org/2000/svg">
<path d="M89.875 39.75C89.875 37.9929 90.573 36.3078 91.8154 35.0654C93.0578 33.823 94.7429 33.125 96.5 33.125H156.125C157.882 33.125 159.567 33.823 160.81 35.0654C162.052 36.3078 162.75 37.9929 162.75 39.75C162.75 41.5071 162.052 43.1922 160.81 44.4346C159.567 45.677 157.882 46.375 156.125 46.375H96.5C94.7429 46.375 93.0578 45.677 91.8154 44.4346C90.573 43.1922 89.875 41.5071 89.875 39.75ZM30.25 66.25C30.25 64.4929 30.948 62.8078 32.1904 61.5654C33.4328 60.323 35.1179 59.625 36.875 59.625H109.75C111.507 59.625 113.192 60.323 114.435 61.5654C115.677 62.8078 116.375 64.4929 116.375 66.25C116.375 68.0071 115.677 69.6922 114.435 70.9346C113.192 72.177 111.507 72.875 109.75 72.875H36.875C35.1179 72.875 33.4328 72.177 32.1904 70.9346C30.948 69.6922 30.25 68.0071 30.25 66.25ZM50.125 86.125C48.3679 86.125 46.6828 86.823 45.4404 88.0654C44.198 89.3078 43.5 90.9929 43.5 92.75C43.5 94.5071 44.198 96.1922 45.4404 97.4346C46.6828 98.677 48.3679 99.375 50.125 99.375H109.75C111.507 99.375 113.192 98.677 114.435 97.4346C115.677 96.1922 116.375 94.5071 116.375 92.75C116.375 90.9929 115.677 89.3078 114.435 88.0654C113.192 86.823 111.507 86.125 109.75 86.125H50.125ZM129.625 86.125C127.868 86.125 126.183 86.823 124.94 88.0654C123.698 89.3078 123 90.9929 123 92.75C123 94.5071 123.698 96.1922 124.94 97.4346C126.183 98.677 127.868 99.375 129.625 99.375H156.125C157.882 99.375 159.567 98.677 160.81 97.4346C162.052 96.1922 162.75 94.5071 162.75 92.75C162.75 90.9929 162.052 89.3078 160.81 88.0654C159.567 86.823 157.882 86.125 156.125 86.125H129.625ZM129.625 59.625C127.868 59.625 126.183 60.323 124.94 61.5654C123.698 62.8078 123 64.4929 123 66.25C123 68.0071 123.698 69.6922 124.94 70.9346C126.183 72.177 127.868 72.875 129.625 72.875H142.875C144.632 72.875 146.317 72.177 147.56 70.9346C148.802 69.6922 149.5 68.0071 149.5 66.25C149.5 64.4929 148.802 62.8078 147.56 61.5654C146.317 60.323 144.632 59.625 142.875 59.625H129.625ZM63.375 119.25C63.375 117.493 64.073 115.808 65.3154 114.565C66.5578 113.323 68.2429 112.625 70 112.625H142.875C144.632 112.625 146.317 113.323 147.56 114.565C148.802 115.808 149.5 117.493 149.5 119.25C149.5 121.007 148.802 122.692 147.56 123.935C146.317 125.177 144.632 125.875 142.875 125.875H70C68.2429 125.875 66.5578 125.177 65.3154 123.935C64.073 122.692 63.375 121.007 63.375 119.25ZM36.875 112.625C35.1179 112.625 33.4328 113.323 32.1904 114.565C30.948 115.808 30.25 117.493 30.25 119.25C30.25 121.007 30.948 122.692 32.1904 123.935C33.4328 125.177 35.1179 125.875 36.875 125.875H50.125C51.8821 125.875 53.5672 125.177 54.8096 123.935C56.052 122.692 56.75 121.007 56.75 119.25C56.75 117.493 56.052 115.808 54.8096 114.565C53.5672 113.323 51.8821 112.625 50.125 112.625H36.875ZM50.125 33.125C48.3679 33.125 46.6828 33.823 45.4404 35.0654C44.198 36.3078 43.5 37.9929 43.5 39.75C43.5 41.5071 44.198 43.1922 45.4404 44.4346C46.6828 45.677 48.3679 46.375 50.125 46.375H76.625C78.3821 46.375 80.0672 45.677 81.3096 44.4346C82.552 43.1922 83.25 41.5071 83.25 39.75C83.25 37.9929 82.552 36.3078 81.3096 35.0654C80.0672 33.823 78.3821 33.125 76.625 33.125H50.125Z" fill="url(#paint0_linear_202_1413)"/>
<g filter="url(#filter0_bd_202_1413)">
<mask id="path-2-inside-1_202_1413" fill="white">
<path fill-rule="evenodd" clip-rule="evenodd" d="M265.5 204.997C265.666 204.999 265.833 205 266 205C289.748 205 309 185.748 309 162C309 138.252 289.748 119 266 119C265.833 119 265.666 119.001 265.5 119.003V119H254.391C254.793 116.057 255 113.053 255 110C255 73.5492 225.451 44 189 44C152.549 44 123 73.5492 123 110C123 113.439 123.263 116.817 123.77 120.115C120.631 119.386 117.361 119 114 119C90.2518 119 71 138.252 71 162C71 185.748 90.2518 205 114 205C114.168 205 114.335 204.999 114.502 204.997L114.5 205H265.5V204.997Z"/>
</mask>
<path fill-rule="evenodd" clip-rule="evenodd" d="M265.5 204.997C265.666 204.999 265.833 205 266 205C289.748 205 309 185.748 309 162C309 138.252 289.748 119 266 119C265.833 119 265.666 119.001 265.5 119.003V119H254.391C254.793 116.057 255 113.053 255 110C255 73.5492 225.451 44 189 44C152.549 44 123 73.5492 123 110C123 113.439 123.263 116.817 123.77 120.115C120.631 119.386 117.361 119 114 119C90.2518 119 71 138.252 71 162C71 185.748 90.2518 205 114 205C114.168 205 114.335 204.999 114.502 204.997L114.5 205H265.5V204.997Z" fill="url(#paint1_linear_202_1413)" shape-rendering="crispEdges"/>
<path d="M265.5 204.997L265.523 202.997C264.988 202.991 264.474 203.199 264.094 203.575C263.714 203.951 263.5 204.463 263.5 204.997H265.5ZM265.5 119.003H263.5C263.5 119.537 263.714 120.049 264.094 120.425C264.474 120.801 264.988 121.009 265.523 121.003L265.5 119.003ZM265.5 119H267.5C267.5 117.895 266.605 117 265.5 117V119ZM254.391 119L252.41 118.73C252.332 119.302 252.505 119.88 252.885 120.315C253.265 120.75 253.814 121 254.391 121V119ZM123.77 120.115L123.318 122.063C123.964 122.213 124.643 122.033 125.13 121.582C125.617 121.13 125.848 120.467 125.747 119.811L123.77 120.115ZM114.502 204.997L116.072 206.237C116.549 205.632 116.637 204.807 116.297 204.115C115.957 203.423 115.25 202.988 114.479 202.997L114.502 204.997ZM114.5 205L112.931 203.76C112.455 204.362 112.366 205.182 112.7 205.872C113.034 206.562 113.733 207 114.5 207V205ZM265.5 205V207C266.605 207 267.5 206.105 267.5 205H265.5ZM265.477 206.997C265.651 206.999 265.825 207 266 207V203C265.841 203 265.682 202.999 265.523 202.997L265.477 206.997ZM266 207C290.853 207 311 186.853 311 162H307C307 184.644 288.644 203 266 203V207ZM311 162C311 137.147 290.853 117 266 117V121C288.644 121 307 139.356 307 162H311ZM266 117C265.826 117 265.651 117.001 265.477 117.003L265.523 121.003C265.682 121.001 265.841 121 266 121V117ZM263.5 119V119.003H267.5V119H263.5ZM254.391 121H265.5V117H254.391V121ZM256.373 119.27C256.787 116.238 257 113.143 257 110H253C253 112.962 252.799 115.876 252.41 118.73L256.373 119.27ZM257 110C257 72.4446 226.555 42 189 42V46C224.346 46 253 74.6538 253 110H257ZM189 42C151.445 42 121 72.4446 121 110H125C125 74.6538 153.654 46 189 46V42ZM121 110C121 113.542 121.271 117.021 121.793 120.419L125.747 119.811C125.255 116.614 125 113.337 125 110H121ZM124.223 118.167C120.937 117.403 117.514 117 114 117V121C117.207 121 120.326 121.368 123.318 122.063L124.223 118.167ZM114 117C89.1472 117 69 137.147 69 162H73C73 139.356 91.3563 121 114 121V117ZM69 162C69 186.853 89.1472 207 114 207V203C91.3563 203 73 184.644 73 162H69ZM114 207C114.175 207 114.35 206.999 114.525 206.997L114.479 202.997C114.32 202.999 114.16 203 114 203V207ZM116.069 206.24L116.072 206.237L112.933 203.757L112.931 203.76L116.069 206.24ZM265.5 203H114.5V207H265.5V203ZM263.5 204.997V205H267.5V204.997H263.5Z" fill="url(#paint2_linear_202_1413)" mask="url(#path-2-inside-1_202_1413)"/>
</g>
<defs>
<filter id="filter0_bd_202_1413" x="0" y="9" width="338" height="261" filterUnits="userSpaceOnUse" color-interpolation-filters="sRGB">
<feFlood flood-opacity="0" result="BackgroundImageFix"/>
<feGaussianBlur in="BackgroundImageFix" stdDeviation="7"/>
<feComposite in2="SourceAlpha" operator="in" result="effect1_backgroundBlur_202_1413"/>
<feColorMatrix in="SourceAlpha" type="matrix" values="0 0 0 0 0 0 0 0 0 0 0 0 0 0 0 0 0 0 127 0" result="hardAlpha"/>
<feOffset dx="-21" dy="15"/>
<feGaussianBlur stdDeviation="25"/>
<feComposite in2="hardAlpha" operator="out"/>
<feColorMatrix type="matrix" values="0 0 0 0 0.113725 0 0 0 0 0.14902 0 0 0 0 0.27451 0 0 0 0.25 0"/>
<feBlend mode="normal" in2="effect1_backgroundBlur_202_1413" result="effect2_dropShadow_202_1413"/>
<feBlend mode="normal" in="SourceGraphic" in2="effect2_dropShadow_202_1413" result="shape"/>
</filter>
<linearGradient id="paint0_linear_202_1413" x1="96.5" y1="33.125" x2="96.5" y2="125.875" gradientUnits="userSpaceOnUse">
<stop stop-color="#138EFF"/>
<stop offset="1" stop-color="#00E0FF"/>
</linearGradient>
<linearGradient id="paint1_linear_202_1413" x1="190" y1="-7.5" x2="190" y2="227.5" gradientUnits="userSpaceOnUse">
<stop stop-color="white"/>
<stop offset="1" stop-color="white" stop-opacity="0"/>
</linearGradient>
<linearGradient id="paint2_linear_202_1413" x1="190" y1="44" x2="190" y2="205" gradientUnits="userSpaceOnUse">
<stop stop-color="white"/>
<stop offset="1" stop-color="white" stop-opacity="0"/>
</linearGradient>
</defs>
</svg>
