<svg width="410" height="410" viewBox="0 0 410 410" fill="none" xmlns="http://www.w3.org/2000/svg">
<g filter="url(#filter0_f_225_311)">
<ellipse cx="205" cy="205" rx="105" ry="105" fill="#FFC701" fill-opacity="0.35"/>
</g>
<path d="M305.558 208.443C305.558 263.979 260.536 309 205 309C149.464 309 104.442 263.979 104.442 208.443C104.442 152.906 149.464 107.885 205 107.885C260.536 107.885 305.558 152.906 305.558 208.443Z" fill="url(#paint0_linear_225_311)" stroke="url(#paint1_linear_225_311)" stroke-width="2"/>
<mask id="mask0_225_311" style="mask-type:alpha" maskUnits="userSpaceOnUse" x="103" y="164" width="204" height="146">
<path d="M306.558 208.443C306.558 264.531 261.089 310 205 310C148.911 310 103.442 264.531 103.442 208.443C103.442 152.354 141.165 165.41 197.254 165.41C253.343 165.41 306.558 152.354 306.558 208.443Z" fill="url(#paint2_linear_225_311)"/>
</mask>
<g mask="url(#mask0_225_311)">
<g filter="url(#filter1_f_225_311)">
<path fill-rule="evenodd" clip-rule="evenodd" d="M359.919 394.344C359.919 435.222 326.78 468.36 285.902 468.36C285.615 468.36 285.328 468.359 285.042 468.355V468.36H25.1232L25.1258 468.357C24.8383 468.36 24.5505 468.362 24.2622 468.362C-16.6159 468.362 -49.7542 435.224 -49.7542 394.345C-49.7542 353.467 -16.6159 320.329 24.2622 320.329C59.4977 320.329 88.9826 344.95 96.4512 377.927L121.517 346.147L199.837 320.328H285.042V320.332C285.328 320.329 285.615 320.328 285.902 320.328C326.78 320.328 359.919 353.466 359.919 394.344Z" fill="#E18700"/>
</g>
</g>
<defs>
<filter id="filter0_f_225_311" x="0" y="0" width="410" height="410" filterUnits="userSpaceOnUse" color-interpolation-filters="sRGB">
<feFlood flood-opacity="0" result="BackgroundImageFix"/>
<feBlend mode="normal" in="SourceGraphic" in2="BackgroundImageFix" result="shape"/>
<feGaussianBlur stdDeviation="50" result="effect1_foregroundBlur_225_311"/>
</filter>
<filter id="filter1_f_225_311" x="-63.7542" y="306.328" width="437.673" height="176.034" filterUnits="userSpaceOnUse" color-interpolation-filters="sRGB">
<feFlood flood-opacity="0" result="BackgroundImageFix"/>
<feBlend mode="normal" in="SourceGraphic" in2="BackgroundImageFix" result="shape"/>
<feGaussianBlur stdDeviation="7" result="effect1_foregroundBlur_225_311"/>
</filter>
<linearGradient id="paint0_linear_225_311" x1="205" y1="106.885" x2="205" y2="310" gradientUnits="userSpaceOnUse">
<stop stop-color="#FFE600"/>
<stop offset="1" stop-color="#FF7A00"/>
</linearGradient>
<linearGradient id="paint1_linear_225_311" x1="205" y1="106.885" x2="205" y2="310" gradientUnits="userSpaceOnUse">
<stop stop-color="white"/>
<stop offset="1" stop-color="white" stop-opacity="0"/>
</linearGradient>
<linearGradient id="paint2_linear_225_311" x1="205" y1="106.885" x2="205" y2="310" gradientUnits="userSpaceOnUse">
<stop stop-color="#FFD600"/>
<stop offset="1" stop-color="#FF7A00"/>
</linearGradient>
</defs>
</svg>
