<svg width="389" height="264" viewBox="0 0 389 264" fill="none" xmlns="http://www.w3.org/2000/svg">
<g filter="url(#filter0_bd_225_320)">
<mask id="path-1-inside-1_225_320" fill="white">
<path fill-rule="evenodd" clip-rule="evenodd" d="M189.089 132.355C189.19 132.356 189.291 132.356 189.393 132.356C203.811 132.356 215.5 120.715 215.5 106.354C215.5 91.9939 203.811 80.3523 189.393 80.3523C189.291 80.3523 189.19 80.3529 189.089 80.3541V80.3523H182.345C182.588 78.5729 182.714 76.7561 182.714 74.9101C182.714 52.8684 164.774 35 142.643 35C120.512 35 102.571 52.8684 102.571 74.9101C102.571 76.9899 102.731 79.0325 103.039 81.0265C101.133 80.5855 99.1476 80.3523 97.1072 80.3523C82.6886 80.3523 71 91.9939 71 106.354C71 120.715 82.6886 132.356 97.1072 132.356C97.2089 132.356 97.3105 132.356 97.412 132.355L97.4106 132.356H189.089V132.355Z"/>
</mask>
<path fill-rule="evenodd" clip-rule="evenodd" d="M189.089 132.355C189.19 132.356 189.291 132.356 189.393 132.356C203.811 132.356 215.5 120.715 215.5 106.354C215.5 91.9939 203.811 80.3523 189.393 80.3523C189.291 80.3523 189.19 80.3529 189.089 80.3541V80.3523H182.345C182.588 78.5729 182.714 76.7561 182.714 74.9101C182.714 52.8684 164.774 35 142.643 35C120.512 35 102.571 52.8684 102.571 74.9101C102.571 76.9899 102.731 79.0325 103.039 81.0265C101.133 80.5855 99.1476 80.3523 97.1072 80.3523C82.6886 80.3523 71 91.9939 71 106.354C71 120.715 82.6886 132.356 97.1072 132.356C97.2089 132.356 97.3105 132.356 97.412 132.355L97.4106 132.356H189.089V132.355Z" fill="url(#paint0_linear_225_320)" shape-rendering="crispEdges"/>
<path d="M189.089 132.355L189.112 130.355C188.578 130.349 188.063 130.557 187.683 130.933C187.303 131.308 187.089 131.82 187.089 132.355H189.089ZM189.089 80.3541H187.089C187.089 80.8884 187.303 81.4006 187.683 81.7763C188.063 82.152 188.578 82.36 189.112 82.3539L189.089 80.3541ZM189.089 80.3523H191.089C191.089 79.2478 190.194 78.3523 189.089 78.3523V80.3523ZM182.345 80.3523L180.363 80.0811C180.285 80.6535 180.458 81.2318 180.838 81.6672C181.218 82.1025 181.767 82.3523 182.345 82.3523V80.3523ZM103.039 81.0265L102.588 82.975C103.235 83.1246 103.913 82.9437 104.4 82.4922C104.886 82.0406 105.117 81.3772 105.016 80.7213L103.039 81.0265ZM97.412 132.355L98.981 133.595C99.459 132.99 99.547 132.165 99.2071 131.473C98.8672 130.781 98.16 130.346 97.3892 130.355L97.412 132.355ZM97.4106 132.356L95.8417 131.116C95.3662 131.718 95.2764 132.538 95.6105 133.228C95.9447 133.918 96.6439 134.356 97.4106 134.356V132.356ZM189.089 132.356V134.356C190.194 134.356 191.089 133.461 191.089 132.356H189.089ZM189.067 134.355C189.175 134.356 189.284 134.356 189.393 134.356V130.356C189.299 130.356 189.205 130.356 189.112 130.355L189.067 134.355ZM189.393 134.356C204.908 134.356 217.5 121.827 217.5 106.354H213.5C213.5 119.603 202.714 130.356 189.393 130.356V134.356ZM217.5 106.354C217.5 90.8817 204.908 78.3523 189.393 78.3523V82.3523C202.714 82.3523 213.5 93.106 213.5 106.354H217.5ZM189.393 78.3523C189.284 78.3523 189.175 78.353 189.067 78.3542L189.112 82.3539C189.205 82.3529 189.299 82.3523 189.393 82.3523V78.3523ZM187.089 80.3523V80.3541H191.089V80.3523H187.089ZM182.345 82.3523H189.089V78.3523H182.345V82.3523ZM184.326 80.6236C184.582 78.7545 184.714 76.8472 184.714 74.9101H180.714C180.714 76.6651 180.595 78.3913 180.363 80.0811L184.326 80.6236ZM184.714 74.9101C184.714 51.7562 165.871 33 142.643 33V37C163.677 37 180.714 53.9805 180.714 74.9101H184.714ZM142.643 33C119.415 33 100.571 51.7562 100.571 74.9101H104.571C104.571 53.9805 121.609 37 142.643 37V33ZM100.571 74.9101C100.571 77.0924 100.739 79.2371 101.062 81.3317L105.016 80.7213C104.723 78.8279 104.571 76.8873 104.571 74.9101H100.571ZM103.49 79.078C101.437 78.603 99.3004 78.3523 97.1072 78.3523V82.3523C98.9948 82.3523 100.829 82.568 102.588 82.975L103.49 79.078ZM97.1072 78.3523C81.5916 78.3523 69 90.8817 69 106.354H73C73 93.106 83.7855 82.3523 97.1072 82.3523V78.3523ZM69 106.354C69 121.827 81.5916 134.356 97.1072 134.356V130.356C83.7855 130.356 73 119.603 73 106.354H69ZM97.1072 134.356C97.2165 134.356 97.3258 134.356 97.4349 134.355L97.3892 130.355C97.2953 130.356 97.2013 130.356 97.1072 130.356V134.356ZM98.9796 133.597L98.981 133.595L95.8431 131.114L95.8417 131.116L98.9796 133.597ZM189.089 130.356H97.4106V134.356H189.089V130.356ZM187.089 132.355V132.356H191.089V132.355H187.089Z" fill="url(#paint1_linear_225_320)" mask="url(#path-1-inside-1_225_320)"/>
</g>
<g filter="url(#filter1_bd_225_320)">
<mask id="path-3-inside-2_225_320" fill="white">
<path fill-rule="evenodd" clip-rule="evenodd" d="M268.007 198.998C268.147 198.999 268.287 199 268.427 199C288.379 199 304.552 182.891 304.552 163.02C304.552 143.149 288.379 127.041 268.427 127.041C268.287 127.041 268.147 127.042 268.007 127.043V127.041H258.675C259.012 124.579 259.186 122.065 259.186 119.51C259.186 89.0105 234.361 64.2856 203.738 64.2856C173.115 64.2856 148.291 89.0105 148.291 119.51C148.291 122.388 148.512 125.215 148.938 127.974C146.301 127.363 143.553 127.041 140.73 127.041C120.778 127.041 104.604 143.149 104.604 163.02C104.604 182.891 120.778 199 140.73 199C140.87 199 141.011 198.999 141.151 198.998L141.15 199H268.007V198.998Z"/>
</mask>
<path fill-rule="evenodd" clip-rule="evenodd" d="M268.007 198.998C268.147 198.999 268.287 199 268.427 199C288.379 199 304.552 182.891 304.552 163.02C304.552 143.149 288.379 127.041 268.427 127.041C268.287 127.041 268.147 127.042 268.007 127.043V127.041H258.675C259.012 124.579 259.186 122.065 259.186 119.51C259.186 89.0105 234.361 64.2856 203.738 64.2856C173.115 64.2856 148.291 89.0105 148.291 119.51C148.291 122.388 148.512 125.215 148.938 127.974C146.301 127.363 143.553 127.041 140.73 127.041C120.778 127.041 104.604 143.149 104.604 163.02C104.604 182.891 120.778 199 140.73 199C140.87 199 141.011 198.999 141.151 198.998L141.15 199H268.007V198.998Z" fill="url(#paint2_linear_225_320)" shape-rendering="crispEdges"/>
<path d="M268.007 198.998L268.03 196.998C267.496 196.992 266.981 197.2 266.601 197.575C266.221 197.951 266.007 198.463 266.007 198.998H268.007ZM268.007 127.043H266.007C266.007 127.578 266.221 128.09 266.601 128.465C266.981 128.841 267.496 129.049 268.03 129.043L268.007 127.043ZM268.007 127.041H270.007C270.007 125.936 269.112 125.041 268.007 125.041V127.041ZM258.675 127.041L256.693 126.77C256.615 127.342 256.788 127.92 257.168 128.356C257.548 128.791 258.097 129.041 258.675 129.041V127.041ZM148.938 127.974L148.487 129.922C149.133 130.072 149.812 129.891 150.299 129.439C150.785 128.988 151.016 128.324 150.914 127.668L148.938 127.974ZM141.151 198.998L142.721 200.237C143.199 199.632 143.286 198.807 142.946 198.115C142.606 197.424 141.899 196.989 141.129 196.998L141.151 198.998ZM141.15 199L139.58 197.761C139.105 198.362 139.016 199.182 139.35 199.872C139.684 200.562 140.383 201 141.15 201V199ZM268.007 199V201C269.112 201 270.007 200.105 270.007 199H268.007ZM267.984 200.997C268.132 200.999 268.28 201 268.427 201V197C268.295 197 268.162 196.999 268.03 196.998L267.984 200.997ZM268.427 201C289.476 201 306.552 184.004 306.552 163.02H302.552C302.552 181.779 287.282 197 268.427 197V201ZM306.552 163.02C306.552 142.037 289.476 125.041 268.427 125.041V129.041C287.282 129.041 302.552 144.262 302.552 163.02H306.552ZM268.427 125.041C268.28 125.041 268.132 125.042 267.984 125.043L268.03 129.043C268.162 129.042 268.295 129.041 268.427 129.041V125.041ZM266.007 127.041V127.043H270.007V127.041H266.007ZM258.675 129.041H268.007V125.041H258.675V129.041ZM260.656 127.312C261.006 124.76 261.186 122.156 261.186 119.51H257.186C257.186 121.974 257.018 124.397 256.693 126.77L260.656 127.312ZM261.186 119.51C261.186 87.8983 235.458 62.2856 203.738 62.2856V66.2856C233.264 66.2856 257.186 90.1226 257.186 119.51H261.186ZM203.738 62.2856C172.018 62.2856 146.291 87.8983 146.291 119.51H150.291C150.291 90.1226 174.212 66.2856 203.738 66.2856V62.2856ZM146.291 119.51C146.291 122.491 146.52 125.419 146.961 128.279L150.914 127.668C150.504 125.01 150.291 122.285 150.291 119.51H146.291ZM149.389 126.025C146.605 125.381 143.706 125.041 140.73 125.041V129.041C143.4 129.041 145.997 129.346 148.487 129.922L149.389 126.025ZM140.73 125.041C119.681 125.041 102.604 142.037 102.604 163.02H106.604C106.604 144.262 121.875 129.041 140.73 129.041V125.041ZM102.604 163.02C102.604 184.004 119.681 201 140.73 201V197C121.875 197 106.604 181.779 106.604 163.02H102.604ZM140.73 201C140.878 201 141.026 200.999 141.174 200.997L141.129 196.998C140.996 196.999 140.863 197 140.73 197V201ZM142.719 200.239L142.721 200.237L139.582 197.758L139.58 197.761L142.719 200.239ZM268.007 197H141.15V201H268.007V197ZM266.007 198.998V199H270.007V198.998H266.007Z" fill="url(#paint3_linear_225_320)" mask="url(#path-3-inside-2_225_320)"/>
</g>
<g filter="url(#filter2_bd_225_320)">
<mask id="path-5-inside-3_225_320" fill="white">
<path fill-rule="evenodd" clip-rule="evenodd" d="M333.589 161.641C333.69 161.642 333.792 161.642 333.893 161.642C348.311 161.642 360 150.001 360 135.64C360 121.28 348.311 109.638 333.893 109.638C333.792 109.638 333.69 109.639 333.589 109.64V109.638H326.845C327.088 107.859 327.214 106.042 327.214 104.196C327.214 82.154 309.274 64.2856 287.143 64.2856C265.012 64.2856 247.071 82.154 247.071 104.196C247.071 106.276 247.231 108.318 247.539 110.312C245.633 109.871 243.648 109.638 241.607 109.638C227.189 109.638 215.5 121.28 215.5 135.64C215.5 150.001 227.189 161.642 241.607 161.642C241.709 161.642 241.811 161.642 241.912 161.641L241.911 161.642H333.589V161.641Z"/>
</mask>
<path fill-rule="evenodd" clip-rule="evenodd" d="M333.589 161.641C333.69 161.642 333.792 161.642 333.893 161.642C348.311 161.642 360 150.001 360 135.64C360 121.28 348.311 109.638 333.893 109.638C333.792 109.638 333.69 109.639 333.589 109.64V109.638H326.845C327.088 107.859 327.214 106.042 327.214 104.196C327.214 82.154 309.274 64.2856 287.143 64.2856C265.012 64.2856 247.071 82.154 247.071 104.196C247.071 106.276 247.231 108.318 247.539 110.312C245.633 109.871 243.648 109.638 241.607 109.638C227.189 109.638 215.5 121.28 215.5 135.64C215.5 150.001 227.189 161.642 241.607 161.642C241.709 161.642 241.811 161.642 241.912 161.641L241.911 161.642H333.589V161.641Z" fill="url(#paint4_linear_225_320)" shape-rendering="crispEdges"/>
<path d="M333.589 161.641L333.612 159.641C333.078 159.635 332.563 159.843 332.183 160.218C331.803 160.594 331.589 161.106 331.589 161.641H333.589ZM333.589 109.64H331.589C331.589 110.174 331.803 110.686 332.183 111.062C332.563 111.438 333.078 111.646 333.612 111.64L333.589 109.64ZM333.589 109.638H335.589C335.589 108.534 334.694 107.638 333.589 107.638V109.638ZM326.845 109.638L324.863 109.367C324.785 109.939 324.958 110.518 325.338 110.953C325.718 111.388 326.267 111.638 326.845 111.638V109.638ZM247.539 110.312L247.088 112.261C247.735 112.41 248.413 112.23 248.9 111.778C249.386 111.326 249.617 110.663 249.516 110.007L247.539 110.312ZM241.912 161.641L243.48 162.882C243.959 162.278 244.047 161.452 243.708 160.759C243.368 160.067 242.66 159.632 241.889 159.641L241.912 161.641ZM241.911 161.642L240.343 160.401C239.867 161.002 239.776 161.823 240.11 162.513C240.444 163.204 241.144 163.642 241.911 163.642V161.642ZM333.589 161.642V163.642C334.694 163.642 335.589 162.747 335.589 161.642H333.589ZM333.567 163.64C333.675 163.642 333.784 163.642 333.893 163.642V159.642C333.799 159.642 333.706 159.642 333.612 159.641L333.567 163.64ZM333.893 163.642C349.408 163.642 362 151.113 362 135.64H358C358 148.889 347.214 159.642 333.893 159.642V163.642ZM362 135.64C362 120.168 349.408 107.638 333.893 107.638V111.638C347.214 111.638 358 122.392 358 135.64H362ZM333.893 107.638C333.784 107.638 333.675 107.639 333.567 107.64L333.612 111.64C333.706 111.639 333.799 111.638 333.893 111.638V107.638ZM331.589 109.638V109.64H335.589V109.638H331.589ZM326.845 111.638H333.589V107.638H326.845V111.638ZM328.826 109.909C329.082 108.04 329.214 106.133 329.214 104.196H325.214C325.214 105.951 325.095 107.677 324.863 109.367L328.826 109.909ZM329.214 104.196C329.214 81.0418 310.371 62.2856 287.143 62.2856V66.2856C308.177 66.2856 325.214 83.2662 325.214 104.196H329.214ZM287.143 62.2856C263.915 62.2856 245.071 81.0418 245.071 104.196H249.071C249.071 83.2662 266.109 66.2856 287.143 66.2856V62.2856ZM245.071 104.196C245.071 106.378 245.239 108.523 245.563 110.618L249.516 110.007C249.223 108.114 249.071 106.173 249.071 104.196H245.071ZM247.99 108.364C245.937 107.889 243.8 107.638 241.607 107.638V111.638C243.495 111.638 245.329 111.854 247.088 112.261L247.99 108.364ZM241.607 107.638C226.092 107.638 213.5 120.168 213.5 135.64H217.5C217.5 122.392 228.286 111.638 241.607 111.638V107.638ZM213.5 135.64C213.5 151.113 226.092 163.642 241.607 163.642V159.642C228.286 159.642 217.5 148.889 217.5 135.64H213.5ZM241.607 163.642C241.717 163.642 241.826 163.642 241.935 163.64L241.889 159.641C241.795 159.642 241.701 159.642 241.607 159.642V163.642ZM243.479 162.884L243.48 162.882L240.344 160.399L240.343 160.401L243.479 162.884ZM333.589 159.642H241.911V163.642H333.589V159.642ZM331.589 161.641V161.642H335.589V161.641H331.589Z" fill="url(#paint5_linear_225_320)" mask="url(#path-5-inside-3_225_320)"/>
</g>
<defs>
<filter id="filter0_bd_225_320" x="0" y="0" width="244.5" height="197.356" filterUnits="userSpaceOnUse" color-interpolation-filters="sRGB">
<feFlood flood-opacity="0" result="BackgroundImageFix"/>
<feGaussianBlur in="BackgroundImageFix" stdDeviation="7"/>
<feComposite in2="SourceAlpha" operator="in" result="effect1_backgroundBlur_225_320"/>
<feColorMatrix in="SourceAlpha" type="matrix" values="0 0 0 0 0 0 0 0 0 0 0 0 0 0 0 0 0 0 127 0" result="hardAlpha"/>
<feOffset dx="-21" dy="15"/>
<feGaussianBlur stdDeviation="25"/>
<feComposite in2="hardAlpha" operator="out"/>
<feColorMatrix type="matrix" values="0 0 0 0 0.113438 0 0 0 0 0.148981 0 0 0 0 0.275 0 0 0 0.25 0"/>
<feBlend mode="normal" in2="effect1_backgroundBlur_225_320" result="effect2_dropShadow_225_320"/>
<feBlend mode="normal" in="SourceGraphic" in2="effect2_dropShadow_225_320" result="shape"/>
</filter>
<filter id="filter1_bd_225_320" x="33.6045" y="29.2856" width="299.948" height="234.714" filterUnits="userSpaceOnUse" color-interpolation-filters="sRGB">
<feFlood flood-opacity="0" result="BackgroundImageFix"/>
<feGaussianBlur in="BackgroundImageFix" stdDeviation="7"/>
<feComposite in2="SourceAlpha" operator="in" result="effect1_backgroundBlur_225_320"/>
<feColorMatrix in="SourceAlpha" type="matrix" values="0 0 0 0 0 0 0 0 0 0 0 0 0 0 0 0 0 0 127 0" result="hardAlpha"/>
<feOffset dx="-21" dy="15"/>
<feGaussianBlur stdDeviation="25"/>
<feComposite in2="hardAlpha" operator="out"/>
<feColorMatrix type="matrix" values="0 0 0 0 0.113725 0 0 0 0 0.14902 0 0 0 0 0.27451 0 0 0 0.25 0"/>
<feBlend mode="normal" in2="effect1_backgroundBlur_225_320" result="effect2_dropShadow_225_320"/>
<feBlend mode="normal" in="SourceGraphic" in2="effect2_dropShadow_225_320" result="shape"/>
</filter>
<filter id="filter2_bd_225_320" x="144.5" y="29.2856" width="244.5" height="197.357" filterUnits="userSpaceOnUse" color-interpolation-filters="sRGB">
<feFlood flood-opacity="0" result="BackgroundImageFix"/>
<feGaussianBlur in="BackgroundImageFix" stdDeviation="7"/>
<feComposite in2="SourceAlpha" operator="in" result="effect1_backgroundBlur_225_320"/>
<feColorMatrix in="SourceAlpha" type="matrix" values="0 0 0 0 0 0 0 0 0 0 0 0 0 0 0 0 0 0 127 0" result="hardAlpha"/>
<feOffset dx="-21" dy="15"/>
<feGaussianBlur stdDeviation="25"/>
<feComposite in2="hardAlpha" operator="out"/>
<feColorMatrix type="matrix" values="0 0 0 0 0.113438 0 0 0 0 0.148981 0 0 0 0 0.275 0 0 0 0.25 0"/>
<feBlend mode="normal" in2="effect1_backgroundBlur_225_320" result="effect2_dropShadow_225_320"/>
<feBlend mode="normal" in="SourceGraphic" in2="effect2_dropShadow_225_320" result="shape"/>
</filter>
<linearGradient id="paint0_linear_225_320" x1="149.971" y1="37.9286" x2="149.971" y2="143.357" gradientUnits="userSpaceOnUse">
<stop stop-color="white"/>
<stop offset="1" stop-color="white" stop-opacity="0"/>
</linearGradient>
<linearGradient id="paint1_linear_225_320" x1="143.25" y1="35" x2="143.25" y2="132.356" gradientUnits="userSpaceOnUse">
<stop stop-color="white"/>
<stop offset="1" stop-color="white" stop-opacity="0"/>
</linearGradient>
<linearGradient id="paint2_linear_225_320" x1="204.578" y1="21.1938" x2="204.578" y2="217.826" gradientUnits="userSpaceOnUse">
<stop stop-color="white"/>
<stop offset="1" stop-color="white" stop-opacity="0"/>
</linearGradient>
<linearGradient id="paint3_linear_225_320" x1="204.578" y1="64.2856" x2="204.578" y2="199" gradientUnits="userSpaceOnUse">
<stop stop-color="white"/>
<stop offset="1" stop-color="white" stop-opacity="0"/>
</linearGradient>
<linearGradient id="paint4_linear_225_320" x1="294.471" y1="67.2142" x2="294.471" y2="172.643" gradientUnits="userSpaceOnUse">
<stop stop-color="white"/>
<stop offset="1" stop-color="white" stop-opacity="0"/>
</linearGradient>
<linearGradient id="paint5_linear_225_320" x1="287.75" y1="64.2856" x2="287.75" y2="161.642" gradientUnits="userSpaceOnUse">
<stop stop-color="white"/>
<stop offset="1" stop-color="white" stop-opacity="0"/>
</linearGradient>
</defs>
</svg>
