<svg width="723" height="710" viewBox="0 0 723 710" fill="none" xmlns="http://www.w3.org/2000/svg">
<g filter="url(#filter0_bdd_282_562)">
<mask id="path-1-inside-1_282_562" fill="white">
<path d="M472.66 355C472.66 412.99 422.816 460 361.33 460C299.844 460 250 412.99 250 355C250 297.01 299.844 250 361.33 250C422.816 250 472.66 297.01 472.66 355Z"/>
</mask>
<path d="M472.66 355C472.66 412.99 422.816 460 361.33 460C299.844 460 250 412.99 250 355C250 297.01 299.844 250 361.33 250C422.816 250 472.66 297.01 472.66 355Z" fill="url(#paint0_linear_282_562)"/>
<path d="M470.66 355C470.66 411.777 421.823 458 361.33 458V462C423.808 462 474.66 414.203 474.66 355H470.66ZM361.33 458C300.837 458 252 411.777 252 355H248C248 414.203 298.851 462 361.33 462V458ZM252 355C252 298.223 300.837 252 361.33 252V248C298.851 248 248 295.797 248 355H252ZM361.33 252C421.823 252 470.66 298.223 470.66 355H474.66C474.66 295.797 423.808 248 361.33 248V252Z" fill="url(#paint1_linear_282_562)" mask="url(#path-1-inside-1_282_562)"/>
</g>
<defs>
<filter id="filter0_bdd_282_562" x="0" y="0" width="722.66" height="710" filterUnits="userSpaceOnUse" color-interpolation-filters="sRGB">
<feFlood flood-opacity="0" result="BackgroundImageFix"/>
<feGaussianBlur in="BackgroundImageFix" stdDeviation="7"/>
<feComposite in2="SourceAlpha" operator="in" result="effect1_backgroundBlur_282_562"/>
<feColorMatrix in="SourceAlpha" type="matrix" values="0 0 0 0 0 0 0 0 0 0 0 0 0 0 0 0 0 0 127 0" result="hardAlpha"/>
<feOffset dx="-21" dy="15"/>
<feGaussianBlur stdDeviation="25.5"/>
<feComposite in2="hardAlpha" operator="out"/>
<feColorMatrix type="matrix" values="0 0 0 0 0.113438 0 0 0 0 0.148981 0 0 0 0 0.275 0 0 0 0.25 0"/>
<feBlend mode="normal" in2="effect1_backgroundBlur_282_562" result="effect2_dropShadow_282_562"/>
<feColorMatrix in="SourceAlpha" type="matrix" values="0 0 0 0 0 0 0 0 0 0 0 0 0 0 0 0 0 0 127 0" result="hardAlpha"/>
<feOffset/>
<feGaussianBlur stdDeviation="125"/>
<feComposite in2="hardAlpha" operator="out"/>
<feColorMatrix type="matrix" values="0 0 0 0 0.619608 0 0 0 0 0.423529 0 0 0 0 1 0 0 0 1 0"/>
<feBlend mode="normal" in2="effect2_dropShadow_282_562" result="effect3_dropShadow_282_562"/>
<feBlend mode="normal" in="SourceGraphic" in2="effect3_dropShadow_282_562" result="shape"/>
</filter>
<linearGradient id="paint0_linear_282_562" x1="344.027" y1="251.637" x2="344.027" y2="437.436" gradientUnits="userSpaceOnUse">
<stop offset="0.0001" stop-color="#DECFFF"/>
<stop offset="1" stop-color="#7E2FFF"/>
</linearGradient>
<linearGradient id="paint1_linear_282_562" x1="408.565" y1="175.079" x2="367.401" y2="396.999" gradientUnits="userSpaceOnUse">
<stop stop-color="white"/>
<stop offset="1" stop-color="white" stop-opacity="0"/>
</linearGradient>
</defs>
</svg>
