<svg width="352" height="305" viewBox="0 0 352 305" fill="none" xmlns="http://www.w3.org/2000/svg">
<g filter="url(#filter0_f_214_1475)">
<circle cx="230.62" cy="120.62" r="76.6203" fill="#FFC701" fill-opacity="0.5"/>
</g>
<circle cx="230.62" cy="123.132" r="73.1083" fill="url(#paint0_linear_214_1475)" stroke="url(#paint1_linear_214_1475)" stroke-width="2"/>
<mask id="mask0_214_1475" style="mask-type:alpha" maskUnits="userSpaceOnUse" x="48" y="67" width="149" height="108">
<path d="M196.729 100.132C196.729 141.061 163.549 174.241 122.62 174.241C81.6914 174.241 48.512 141.061 48.512 100.132C48.512 59.2036 76.0391 68.7306 116.968 68.7306C157.897 68.7306 196.729 59.2036 196.729 100.132Z" fill="url(#paint2_linear_214_1475)"/>
</mask>
<g mask="url(#mask0_214_1475)">
<g filter="url(#filter1_f_214_1475)">
<path fill-rule="evenodd" clip-rule="evenodd" d="M235.667 235.788C235.667 265.617 211.485 289.799 181.656 289.799C181.446 289.799 181.237 289.798 181.028 289.795V289.799H-8.63897L-8.63657 289.796C-8.84651 289.798 -9.05673 289.8 -9.26723 289.8C-39.0967 289.8 -63.2783 265.618 -63.2783 235.789C-63.2783 205.959 -39.0967 181.777 -9.26723 181.777C16.4449 181.777 37.9606 199.744 43.4104 223.808L61.7011 200.618L118.852 181.777H181.028V181.78C181.237 181.778 181.446 181.777 181.656 181.777C211.485 181.777 235.667 205.958 235.667 235.788Z" fill="#E18700"/>
</g>
</g>
<g filter="url(#filter2_bd_214_1475)">
<mask id="path-5-inside-1_214_1475" fill="white">
<path fill-rule="evenodd" clip-rule="evenodd" d="M247.678 239.997C247.829 239.999 247.981 240 248.133 240C269.69 240 287.166 222.524 287.166 200.967C287.166 179.409 269.69 161.933 248.133 161.933C247.981 161.933 247.829 161.934 247.678 161.936V161.933H237.595C237.959 159.262 238.147 156.535 238.147 153.763C238.147 120.675 211.324 93.8518 178.236 93.8518C145.147 93.8518 118.324 120.675 118.324 153.763C118.324 156.886 118.563 159.952 119.023 162.945C116.174 162.283 113.205 161.933 110.155 161.933C88.5971 161.933 71.1213 179.409 71.1213 200.967C71.1213 222.524 88.5971 240 110.155 240C110.307 240 110.458 239.999 110.61 239.997L110.608 240H247.678V239.997Z"/>
</mask>
<path fill-rule="evenodd" clip-rule="evenodd" d="M247.678 239.997C247.829 239.999 247.981 240 248.133 240C269.69 240 287.166 222.524 287.166 200.967C287.166 179.409 269.69 161.933 248.133 161.933C247.981 161.933 247.829 161.934 247.678 161.936V161.933H237.595C237.959 159.262 238.147 156.535 238.147 153.763C238.147 120.675 211.324 93.8518 178.236 93.8518C145.147 93.8518 118.324 120.675 118.324 153.763C118.324 156.886 118.563 159.952 119.023 162.945C116.174 162.283 113.205 161.933 110.155 161.933C88.5971 161.933 71.1213 179.409 71.1213 200.967C71.1213 222.524 88.5971 240 110.155 240C110.307 240 110.458 239.999 110.61 239.997L110.608 240H247.678V239.997Z" fill="url(#paint3_linear_214_1475)" shape-rendering="crispEdges"/>
<path d="M247.678 239.997L247.701 237.998C247.166 237.991 246.652 238.199 246.272 238.575C245.892 238.951 245.678 239.463 245.678 239.997H247.678ZM247.678 161.936H245.678C245.678 162.47 245.892 162.983 246.272 163.358C246.652 163.734 247.166 163.942 247.701 163.936L247.678 161.936ZM247.678 161.933H249.678C249.678 160.829 248.782 159.933 247.678 159.933V161.933ZM237.595 161.933L235.613 161.663C235.535 162.236 235.708 162.814 236.088 163.249C236.468 163.684 237.017 163.933 237.595 163.933V161.933ZM119.023 162.945L118.571 164.894C119.217 165.044 119.896 164.863 120.383 164.412C120.87 163.961 121.101 163.297 121 162.641L119.023 162.945ZM110.61 239.997L112.179 241.237C112.657 240.632 112.745 239.807 112.405 239.115C112.065 238.423 111.358 237.989 110.587 237.998L110.61 239.997ZM110.608 240L109.038 238.76C108.563 239.362 108.474 240.182 108.808 240.872C109.142 241.562 109.841 242 110.608 242V240ZM247.678 240V242C248.782 242 249.678 241.105 249.678 240H247.678ZM247.655 241.997C247.814 241.999 247.973 242 248.133 242V238C247.988 238 247.844 237.999 247.701 237.998L247.655 241.997ZM248.133 242C270.795 242 289.166 223.629 289.166 200.967H285.166C285.166 221.42 268.586 238 248.133 238V242ZM289.166 200.967C289.166 178.305 270.795 159.933 248.133 159.933V163.933C268.586 163.933 285.166 180.514 285.166 200.967H289.166ZM248.133 159.933C247.973 159.933 247.814 159.934 247.655 159.936L247.701 163.936C247.844 163.934 247.988 163.933 248.133 163.933V159.933ZM245.678 161.933V161.936H249.678V161.933H245.678ZM237.595 163.933H247.678V159.933H237.595V163.933ZM239.576 162.204C239.953 159.443 240.147 156.625 240.147 153.763H236.147C236.147 156.444 235.965 159.081 235.613 161.663L239.576 162.204ZM240.147 153.763C240.147 119.571 212.428 91.8518 178.236 91.8518V95.8518C210.219 95.8518 236.147 121.78 236.147 153.763H240.147ZM178.236 91.8518C144.043 91.8518 116.324 119.571 116.324 153.763H120.324C120.324 121.78 146.252 95.8518 178.236 95.8518V91.8518ZM116.324 153.763C116.324 156.988 116.571 160.156 117.047 163.249L121 162.641C120.555 159.748 120.324 156.783 120.324 153.763H116.324ZM119.476 160.997C116.479 160.301 113.359 159.933 110.155 159.933V163.933C113.052 163.933 115.869 164.266 118.571 164.894L119.476 160.997ZM110.155 159.933C87.4926 159.933 69.1213 178.305 69.1213 200.967H73.1213C73.1213 180.514 89.7017 163.933 110.155 163.933V159.933ZM69.1213 200.967C69.1213 223.629 87.4926 242 110.155 242V238C89.7017 238 73.1213 221.42 73.1213 200.967H69.1213ZM110.155 242C110.314 242 110.473 241.999 110.633 241.997L110.587 237.998C110.443 237.999 110.299 238 110.155 238V242ZM112.177 241.239L112.179 241.237L109.04 238.758L109.038 238.76L112.177 241.239ZM247.678 238H110.608V242H247.678V238ZM245.678 239.997V240H249.678V239.997H245.678Z" fill="url(#paint4_linear_214_1475)" mask="url(#path-5-inside-1_214_1475)"/>
</g>
<defs>
<filter id="filter0_f_214_1475" x="110" y="0" width="241.241" height="241.241" filterUnits="userSpaceOnUse" color-interpolation-filters="sRGB">
<feFlood flood-opacity="0" result="BackgroundImageFix"/>
<feBlend mode="normal" in="SourceGraphic" in2="BackgroundImageFix" result="shape"/>
<feGaussianBlur stdDeviation="22" result="effect1_foregroundBlur_214_1475"/>
</filter>
<filter id="filter1_f_214_1475" x="-77.2783" y="167.777" width="326.945" height="136.023" filterUnits="userSpaceOnUse" color-interpolation-filters="sRGB">
<feFlood flood-opacity="0" result="BackgroundImageFix"/>
<feBlend mode="normal" in="SourceGraphic" in2="BackgroundImageFix" result="shape"/>
<feGaussianBlur stdDeviation="7" result="effect1_foregroundBlur_214_1475"/>
</filter>
<filter id="filter2_bd_214_1475" x="0.121338" y="58.8518" width="316.045" height="246.148" filterUnits="userSpaceOnUse" color-interpolation-filters="sRGB">
<feFlood flood-opacity="0" result="BackgroundImageFix"/>
<feGaussianBlur in="BackgroundImageFix" stdDeviation="7"/>
<feComposite in2="SourceAlpha" operator="in" result="effect1_backgroundBlur_214_1475"/>
<feColorMatrix in="SourceAlpha" type="matrix" values="0 0 0 0 0 0 0 0 0 0 0 0 0 0 0 0 0 0 127 0" result="hardAlpha"/>
<feOffset dx="-21" dy="15"/>
<feGaussianBlur stdDeviation="25"/>
<feComposite in2="hardAlpha" operator="out"/>
<feColorMatrix type="matrix" values="0 0 0 0 0.113438 0 0 0 0 0.148981 0 0 0 0 0.275 0 0 0 0.25 0"/>
<feBlend mode="normal" in2="effect1_backgroundBlur_214_1475" result="effect2_dropShadow_214_1475"/>
<feBlend mode="normal" in="SourceGraphic" in2="effect2_dropShadow_214_1475" result="shape"/>
</filter>
<linearGradient id="paint0_linear_214_1475" x1="230.62" y1="49.0242" x2="230.62" y2="197.241" gradientUnits="userSpaceOnUse">
<stop stop-color="#FFE600"/>
<stop offset="1" stop-color="#FF7A00"/>
</linearGradient>
<linearGradient id="paint1_linear_214_1475" x1="230.62" y1="49.0242" x2="230.62" y2="197.241" gradientUnits="userSpaceOnUse">
<stop stop-color="white"/>
<stop offset="1" stop-color="white" stop-opacity="0"/>
</linearGradient>
<linearGradient id="paint2_linear_214_1475" x1="122.62" y1="26.0242" x2="122.62" y2="174.241" gradientUnits="userSpaceOnUse">
<stop stop-color="#FFD600"/>
<stop offset="1" stop-color="#FF7A00"/>
</linearGradient>
<linearGradient id="paint3_linear_214_1475" x1="189.192" y1="98.2481" x2="189.192" y2="256.514" gradientUnits="userSpaceOnUse">
<stop stop-color="white"/>
<stop offset="1" stop-color="white" stop-opacity="0"/>
</linearGradient>
<linearGradient id="paint4_linear_214_1475" x1="179.144" y1="93.8518" x2="179.144" y2="240" gradientUnits="userSpaceOnUse">
<stop stop-color="white"/>
<stop offset="1" stop-color="white" stop-opacity="0"/>
</linearGradient>
</defs>
</svg>
