<svg width="338" height="261" viewBox="0 0 338 261" fill="none" xmlns="http://www.w3.org/2000/svg">
<g filter="url(#filter0_bd_202_1413)">
<mask id="path-1-inside-1_202_1413" fill="white">
<path fill-rule="evenodd" clip-rule="evenodd" d="M265.5 195.997C265.666 195.999 265.833 196 266 196C289.748 196 309 176.748 309 153C309 129.252 289.748 110 266 110C265.833 110 265.666 110.001 265.5 110.003V110H254.391C254.793 107.057 255 104.053 255 101C255 64.5492 225.451 35 189 35C152.549 35 123 64.5492 123 101C123 104.439 123.263 107.817 123.77 111.115C120.631 110.386 117.361 110 114 110C90.2518 110 71 129.252 71 153C71 176.748 90.2518 196 114 196C114.168 196 114.335 195.999 114.502 195.997L114.5 196H265.5V195.997Z"/>
</mask>
<path fill-rule="evenodd" clip-rule="evenodd" d="M265.5 195.997C265.666 195.999 265.833 196 266 196C289.748 196 309 176.748 309 153C309 129.252 289.748 110 266 110C265.833 110 265.666 110.001 265.5 110.003V110H254.391C254.793 107.057 255 104.053 255 101C255 64.5492 225.451 35 189 35C152.549 35 123 64.5492 123 101C123 104.439 123.263 107.817 123.77 111.115C120.631 110.386 117.361 110 114 110C90.2518 110 71 129.252 71 153C71 176.748 90.2518 196 114 196C114.168 196 114.335 195.999 114.502 195.997L114.5 196H265.5V195.997Z" fill="url(#paint0_linear_202_1413)" shape-rendering="crispEdges"/>
<path d="M265.5 195.997L265.523 193.997C264.988 193.991 264.474 194.199 264.094 194.575C263.714 194.951 263.5 195.463 263.5 195.997H265.5ZM265.5 110.003H263.5C263.5 110.537 263.714 111.049 264.094 111.425C264.474 111.801 264.988 112.009 265.523 112.003L265.5 110.003ZM265.5 110H267.5C267.5 108.895 266.605 108 265.5 108V110ZM254.391 110L252.41 109.73C252.332 110.302 252.505 110.88 252.885 111.315C253.265 111.75 253.814 112 254.391 112V110ZM123.77 111.115L123.318 113.063C123.964 113.213 124.643 113.033 125.13 112.582C125.617 112.13 125.848 111.467 125.747 110.811L123.77 111.115ZM114.502 195.997L116.072 197.237C116.549 196.632 116.637 195.807 116.297 195.115C115.957 194.423 115.25 193.988 114.479 193.997L114.502 195.997ZM114.5 196L112.931 194.76C112.455 195.362 112.366 196.182 112.7 196.872C113.034 197.562 113.733 198 114.5 198V196ZM265.5 196V198C266.605 198 267.5 197.105 267.5 196H265.5ZM265.477 197.997C265.651 197.999 265.825 198 266 198V194C265.841 194 265.682 193.999 265.523 193.997L265.477 197.997ZM266 198C290.853 198 311 177.853 311 153H307C307 175.644 288.644 194 266 194V198ZM311 153C311 128.147 290.853 108 266 108V112C288.644 112 307 130.356 307 153H311ZM266 108C265.826 108 265.651 108.001 265.477 108.003L265.523 112.003C265.682 112.001 265.841 112 266 112V108ZM263.5 110V110.003H267.5V110H263.5ZM254.391 112H265.5V108H254.391V112ZM256.373 110.27C256.787 107.238 257 104.143 257 101H253C253 103.962 252.799 106.876 252.41 109.73L256.373 110.27ZM257 101C257 63.4446 226.555 33 189 33V37C224.346 37 253 65.6538 253 101H257ZM189 33C151.445 33 121 63.4446 121 101H125C125 65.6538 153.654 37 189 37V33ZM121 101C121 104.542 121.271 108.021 121.793 111.419L125.747 110.811C125.255 107.614 125 104.337 125 101H121ZM124.223 109.167C120.937 108.403 117.514 108 114 108V112C117.207 112 120.326 112.368 123.318 113.063L124.223 109.167ZM114 108C89.1472 108 69 128.147 69 153H73C73 130.356 91.3563 112 114 112V108ZM69 153C69 177.853 89.1472 198 114 198V194C91.3563 194 73 175.644 73 153H69ZM114 198C114.175 198 114.35 197.999 114.525 197.997L114.479 193.997C114.32 193.999 114.16 194 114 194V198ZM116.069 197.24L116.072 197.237L112.933 194.757L112.931 194.76L116.069 197.24ZM265.5 194H114.5V198H265.5V194ZM263.5 195.997V196H267.5V195.997H263.5Z" fill="url(#paint1_linear_202_1413)" mask="url(#path-1-inside-1_202_1413)"/>
</g>
<defs>
<filter id="filter0_bd_202_1413" x="0" y="0" width="338" height="261" filterUnits="userSpaceOnUse" color-interpolation-filters="sRGB">
<feFlood flood-opacity="0" result="BackgroundImageFix"/>
<feGaussianBlur in="BackgroundImageFix" stdDeviation="7"/>
<feComposite in2="SourceAlpha" operator="in" result="effect1_backgroundBlur_202_1413"/>
<feColorMatrix in="SourceAlpha" type="matrix" values="0 0 0 0 0 0 0 0 0 0 0 0 0 0 0 0 0 0 127 0" result="hardAlpha"/>
<feOffset dx="-21" dy="15"/>
<feGaussianBlur stdDeviation="25"/>
<feComposite in2="hardAlpha" operator="out"/>
<feColorMatrix type="matrix" values="0 0 0 0 0.113725 0 0 0 0 0.14902 0 0 0 0 0.27451 0 0 0 0.25 0"/>
<feBlend mode="normal" in2="effect1_backgroundBlur_202_1413" result="effect2_dropShadow_202_1413"/>
<feBlend mode="normal" in="SourceGraphic" in2="effect2_dropShadow_202_1413" result="shape"/>
</filter>
<linearGradient id="paint0_linear_202_1413" x1="190" y1="-16.5" x2="190" y2="218.5" gradientUnits="userSpaceOnUse">
<stop stop-color="white"/>
<stop offset="1" stop-color="white" stop-opacity="0"/>
</linearGradient>
<linearGradient id="paint1_linear_202_1413" x1="190" y1="35" x2="190" y2="196" gradientUnits="userSpaceOnUse">
<stop stop-color="white"/>
<stop offset="1" stop-color="white" stop-opacity="0"/>
</linearGradient>
</defs>
</svg>
