<svg width="317" height="301" viewBox="0 0 317 301" fill="none" xmlns="http://www.w3.org/2000/svg">
<g filter="url(#filter0_d_207_1415)">
<path d="M192.939 122.675L181.322 116.619C183.424 114.665 185.835 113.003 188.476 111.686C190.203 110.807 191.476 109.349 192.016 107.628C192.557 105.906 192.323 104.062 191.364 102.496C190.405 100.93 188.799 99.7698 186.897 99.2671C184.994 98.7644 182.949 98.9602 181.205 99.8121C176.162 102.331 171.692 105.69 168.034 109.71L137.928 94L168.027 78.3182C171.685 82.339 176.154 85.6975 181.199 88.2157C182.063 88.6556 183.016 88.9366 184.001 89.0425C184.987 89.1484 185.986 89.0771 186.941 88.8328C187.896 88.5885 188.788 88.1759 189.565 87.6189C190.342 87.0619 190.989 86.3715 191.469 85.5875C191.949 84.8036 192.253 83.9416 192.362 83.0513C192.471 82.1611 192.383 81.2601 192.104 80.4006C191.825 79.541 191.36 78.7397 190.737 78.0431C190.113 77.3465 189.342 76.7682 188.469 76.3417C185.828 75.024 183.418 73.3616 181.315 71.4084L192.932 65.3527C193.82 64.924 194.604 64.3385 195.237 63.6309C195.87 62.9233 196.339 62.1081 196.615 61.2337C196.892 60.3594 196.971 59.4438 196.848 58.5413C196.725 57.6388 196.402 56.7679 195.898 55.9804C195.395 55.1928 194.721 54.5046 193.916 53.9568C193.112 53.4089 192.194 53.0126 191.217 52.7913C190.24 52.57 189.223 52.5283 188.227 52.6687C187.232 52.809 186.278 53.1286 185.422 53.6083L173.805 59.6609C172.977 57.0399 172.583 54.3229 172.636 51.598C172.658 50.7056 172.484 49.8181 172.125 48.9864C171.766 48.1547 171.229 47.3951 170.544 46.7512C169.859 46.1073 169.04 45.5917 168.133 45.234C167.227 44.8763 166.252 44.6835 165.263 44.6667H165.123C163.153 44.6664 161.262 45.3637 159.856 46.6086C158.451 47.8535 157.642 49.5465 157.606 51.3236C157.5 56.5217 158.485 61.691 160.51 66.5583L130.412 82.2494V50.8888C136.098 50.0407 141.556 48.2275 146.494 45.5454C148.202 44.6169 149.431 43.1142 149.911 41.3679C150.391 39.6216 150.082 37.7748 149.054 36.2338C148.025 34.6927 146.359 33.5836 144.424 33.1505C142.489 32.7174 140.443 32.9958 138.735 33.9243C136.146 35.3284 133.341 36.3789 130.412 37.0416V26.7833C130.412 24.9843 129.62 23.2589 128.21 21.9868C126.8 20.7147 124.888 20 122.895 20C120.901 20 118.989 20.7147 117.579 21.9868C116.17 23.2589 115.378 24.9843 115.378 26.7833V37.0416C112.448 36.3789 109.643 35.3284 107.055 33.9243C105.347 32.9958 103.3 32.7174 101.365 33.1505C99.4301 33.5836 97.7648 34.6927 96.7359 36.2338C95.7069 37.7748 95.3985 39.6216 95.8784 41.3679C96.3583 43.1142 97.5873 44.6169 99.295 45.5454C104.234 48.2275 109.691 50.0407 115.378 50.8888V82.2494L85.2794 66.5583C87.3073 61.6894 88.2951 56.518 88.1905 51.3174C88.1538 49.5404 87.3457 47.8473 85.94 46.6024C84.5342 45.3575 82.6432 44.6602 80.6736 44.6605H80.5267C79.5395 44.6769 78.5656 44.8687 77.6606 45.2249C76.7555 45.5811 75.9371 46.0947 75.2521 46.7363C74.5671 47.378 74.0288 48.1352 73.6681 48.9646C73.3074 49.794 73.1313 50.6794 73.1499 51.5703C73.205 54.2991 72.8124 57.0203 71.9848 59.6455L60.3677 53.6083C59.5123 53.1478 58.5639 52.8454 57.5778 52.7185C56.5916 52.5916 55.5874 52.6429 54.6234 52.8693C53.6594 53.0958 52.7549 53.4929 51.9624 54.0375C51.17 54.5821 50.5054 55.2635 50.0073 56.0419C49.5092 56.8204 49.1875 57.6804 49.0609 58.572C48.9344 59.4636 49.0054 60.3691 49.27 61.2357C49.5346 62.1023 49.9874 62.9128 50.6021 63.6201C51.2168 64.3274 51.9812 64.9174 52.8508 65.3558L64.4679 71.4115C62.365 73.3647 59.9541 75.0271 57.3131 76.3448C56.4403 76.7713 55.6698 77.3496 55.0459 78.0462C54.4221 78.7428 53.9573 79.5441 53.6783 80.4036C53.3994 81.2632 53.3119 82.1642 53.4209 83.0544C53.5298 83.9447 53.8331 84.8067 54.3131 85.5906C54.7932 86.3746 55.4405 87.065 56.2178 87.622C56.995 88.179 57.8869 88.5916 58.8418 88.8359C59.7967 89.0802 60.7957 89.1515 61.7813 89.0456C62.7669 88.9396 63.7194 88.6586 64.584 88.2188C69.6276 85.6996 74.097 82.3412 77.7557 78.3212L107.861 94L77.7625 109.682C74.1038 105.662 69.6345 102.304 64.5909 99.7843C63.7263 99.3445 62.7737 99.0634 61.7881 98.9575C60.8026 98.8516 59.8035 98.9229 58.8486 99.1672C57.8937 99.4115 57.0019 99.8241 56.2246 100.381C55.4473 100.938 54.8 101.629 54.3199 102.412C53.8399 103.196 53.5366 104.058 53.4277 104.949C53.3188 105.839 53.4063 106.74 53.6852 107.599C53.9641 108.459 54.4289 109.26 55.0528 109.957C55.6766 110.654 56.4472 111.232 57.32 111.658C59.9609 112.976 62.3718 114.638 64.4747 116.592L52.8508 122.675C51.9812 123.113 51.2168 123.703 50.6021 124.411C49.9874 125.118 49.5346 125.929 49.27 126.795C49.0054 127.662 48.9344 128.567 49.0609 129.459C49.1875 130.35 49.5092 131.21 50.0073 131.989C50.5054 132.767 51.17 133.449 51.9624 133.993C52.7549 134.538 53.6594 134.935 54.6234 135.161C55.5874 135.388 56.5916 135.439 57.5778 135.312C58.5639 135.185 59.5123 134.883 60.3677 134.423L71.9848 128.37C72.8122 130.991 73.2059 133.708 73.1533 136.433C73.1185 138.23 73.8755 139.966 75.258 141.26C76.6404 142.553 78.5354 143.299 80.5267 143.333H80.6668C82.6364 143.334 84.5274 142.636 85.9331 141.391C87.3389 140.147 88.147 138.453 88.1837 136.676C88.2896 131.478 87.3041 126.309 85.2794 121.442L115.378 105.751V137.111C109.691 137.959 104.234 139.772 99.295 142.455C97.5873 143.383 96.3583 144.886 95.8784 146.632C95.3985 148.378 95.7069 150.225 96.7359 151.766C97.7648 153.307 99.4301 154.416 101.365 154.849C103.3 155.283 105.347 155.004 107.055 154.076C109.643 152.672 112.448 151.621 115.378 150.958V161.217C115.378 163.016 116.17 164.741 117.579 166.013C118.989 167.285 120.901 168 122.895 168C124.888 168 126.8 167.285 128.21 166.013C129.62 164.741 130.412 163.016 130.412 161.217V150.958C133.341 151.621 136.146 152.672 138.735 154.076C140.443 155.004 142.489 155.283 144.424 154.849C146.359 154.416 148.025 153.307 149.054 151.766C150.082 150.225 150.391 148.378 149.911 146.632C149.431 144.886 148.202 143.383 146.494 142.455C141.556 139.772 136.098 137.959 130.412 137.111V105.751L160.51 121.442C158.482 126.311 157.494 131.482 157.599 136.683C157.636 138.46 158.444 140.153 159.849 141.398C161.255 142.643 163.146 143.34 165.116 143.339H165.263C166.25 143.323 167.224 143.131 168.129 142.775C169.034 142.419 169.852 141.905 170.537 141.264C171.222 140.622 171.761 139.865 172.121 139.035C172.482 138.206 172.658 137.321 172.639 136.43C172.584 133.701 172.977 130.98 173.805 128.355L185.422 134.407C186.277 134.903 187.235 135.237 188.238 135.389C189.24 135.541 190.266 135.508 191.254 135.291C192.242 135.075 193.172 134.68 193.986 134.131C194.8 133.581 195.482 132.889 195.991 132.094C196.499 131.3 196.824 130.421 196.946 129.51C197.068 128.6 196.983 127.676 196.698 126.795C196.413 125.915 195.932 125.096 195.286 124.388C194.64 123.679 193.841 123.097 192.939 122.675Z" fill="url(#paint0_linear_207_1415)"/>
</g>
<mask id="mask0_207_1415" style="mask-type:alpha" maskUnits="userSpaceOnUse" x="48" y="63" width="149" height="108">
<path d="M196.729 96.1325C196.729 137.061 163.549 170.241 122.62 170.241C81.6914 170.241 48.512 137.061 48.512 96.1325C48.512 55.2037 76.0391 64.7308 116.968 64.7308C157.897 64.7308 196.729 55.2037 196.729 96.1325Z" fill="url(#paint1_linear_207_1415)"/>
</mask>
<g mask="url(#mask0_207_1415)">
<g filter="url(#filter1_f_207_1415)">
<path fill-rule="evenodd" clip-rule="evenodd" d="M235.667 231.788C235.667 261.618 211.486 285.799 181.656 285.799C181.446 285.799 181.237 285.798 181.028 285.796V285.799H-8.6389L-8.63651 285.796C-8.84645 285.799 -9.05667 285.8 -9.26717 285.8C-39.0967 285.8 -63.2783 261.618 -63.2783 231.789C-63.2783 201.959 -39.0967 177.778 -9.26717 177.778C16.4449 177.778 37.9607 195.744 43.4105 219.808L61.7012 196.618L118.853 177.777H181.028V177.781C181.237 177.778 181.446 177.777 181.656 177.777C211.486 177.777 235.667 201.959 235.667 231.788Z" fill="#E18700"/>
</g>
</g>
<g filter="url(#filter2_bd_207_1415)">
<mask id="path-4-inside-1_207_1415" fill="white">
<path fill-rule="evenodd" clip-rule="evenodd" d="M247.678 235.997C247.829 235.999 247.981 236 248.133 236C269.69 236 287.166 218.524 287.166 196.967C287.166 175.409 269.69 157.933 248.133 157.933C247.981 157.933 247.829 157.934 247.678 157.936V157.933H237.595C237.959 155.262 238.147 152.535 238.147 149.763C238.147 116.675 211.324 89.8518 178.236 89.8518C145.147 89.8518 118.324 116.675 118.324 149.763C118.324 152.886 118.563 155.952 119.023 158.945C116.174 158.283 113.205 157.933 110.155 157.933C88.5971 157.933 71.1213 175.409 71.1213 196.967C71.1213 218.524 88.5971 236 110.155 236C110.307 236 110.458 235.999 110.61 235.997L110.608 236H247.678V235.997Z"/>
</mask>
<path fill-rule="evenodd" clip-rule="evenodd" d="M247.678 235.997C247.829 235.999 247.981 236 248.133 236C269.69 236 287.166 218.524 287.166 196.967C287.166 175.409 269.69 157.933 248.133 157.933C247.981 157.933 247.829 157.934 247.678 157.936V157.933H237.595C237.959 155.262 238.147 152.535 238.147 149.763C238.147 116.675 211.324 89.8518 178.236 89.8518C145.147 89.8518 118.324 116.675 118.324 149.763C118.324 152.886 118.563 155.952 119.023 158.945C116.174 158.283 113.205 157.933 110.155 157.933C88.5971 157.933 71.1213 175.409 71.1213 196.967C71.1213 218.524 88.5971 236 110.155 236C110.307 236 110.458 235.999 110.61 235.997L110.608 236H247.678V235.997Z" fill="url(#paint2_linear_207_1415)" shape-rendering="crispEdges"/>
<path d="M247.678 235.997L247.7 233.998C247.166 233.991 246.652 234.199 246.272 234.575C245.892 234.951 245.678 235.463 245.678 235.997H247.678ZM247.678 157.936H245.678C245.678 158.47 245.892 158.983 246.272 159.358C246.652 159.734 247.166 159.942 247.701 159.936L247.678 157.936ZM247.678 157.933H249.678C249.678 156.829 248.782 155.933 247.678 155.933V157.933ZM237.595 157.933L235.613 157.663C235.535 158.236 235.708 158.814 236.088 159.249C236.468 159.684 237.017 159.933 237.595 159.933V157.933ZM119.023 158.945L118.571 160.894C119.217 161.044 119.896 160.863 120.383 160.412C120.87 159.961 121.101 159.297 121 158.641L119.023 158.945ZM110.61 235.997L112.179 237.237C112.657 236.632 112.745 235.807 112.405 235.115C112.065 234.423 111.358 233.989 110.587 233.998L110.61 235.997ZM110.608 236L109.038 234.76C108.563 235.362 108.474 236.182 108.808 236.872C109.142 237.562 109.841 238 110.608 238V236ZM247.678 236V238C248.782 238 249.678 237.105 249.678 236H247.678ZM247.655 237.997C247.814 237.999 247.973 238 248.133 238V234C247.988 234 247.844 233.999 247.7 233.998L247.655 237.997ZM248.133 238C270.795 238 289.166 219.629 289.166 196.967H285.166C285.166 217.42 268.586 234 248.133 234V238ZM289.166 196.967C289.166 174.305 270.795 155.933 248.133 155.933V159.933C268.586 159.933 285.166 176.514 285.166 196.967H289.166ZM248.133 155.933C247.973 155.933 247.814 155.934 247.655 155.936L247.701 159.936C247.844 159.934 247.988 159.933 248.133 159.933V155.933ZM245.678 157.933V157.936H249.678V157.933H245.678ZM237.595 159.933H247.678V155.933H237.595V159.933ZM239.576 158.204C239.953 155.443 240.147 152.625 240.147 149.763H236.147C236.147 152.444 235.965 155.081 235.613 157.663L239.576 158.204ZM240.147 149.763C240.147 115.571 212.428 87.8518 178.236 87.8518V91.8518C210.219 91.8518 236.147 117.78 236.147 149.763H240.147ZM178.236 87.8518C144.043 87.8518 116.324 115.571 116.324 149.763H120.324C120.324 117.78 146.252 91.8518 178.236 91.8518V87.8518ZM116.324 149.763C116.324 152.988 116.571 156.156 117.047 159.249L121 158.641C120.555 155.748 120.324 152.783 120.324 149.763H116.324ZM119.476 156.997C116.479 156.301 113.359 155.933 110.155 155.933V159.933C113.052 159.933 115.869 160.266 118.571 160.894L119.476 156.997ZM110.155 155.933C87.4925 155.933 69.1213 174.305 69.1213 196.967H73.1213C73.1213 176.514 89.7017 159.933 110.155 159.933V155.933ZM69.1213 196.967C69.1213 219.629 87.4925 238 110.155 238V234C89.7017 234 73.1213 217.42 73.1213 196.967H69.1213ZM110.155 238C110.314 238 110.473 237.999 110.633 237.997L110.587 233.998C110.443 233.999 110.299 234 110.155 234V238ZM112.177 237.239L112.179 237.237L109.04 234.758L109.038 234.76L112.177 237.239ZM247.678 234H110.608V238H247.678V234ZM245.678 235.997V236H249.678V235.997H245.678Z" fill="url(#paint3_linear_207_1415)" mask="url(#path-4-inside-1_207_1415)"/>
</g>
<defs>
<filter id="filter0_d_207_1415" x="29" y="0" width="188" height="188" filterUnits="userSpaceOnUse" color-interpolation-filters="sRGB">
<feFlood flood-opacity="0" result="BackgroundImageFix"/>
<feColorMatrix in="SourceAlpha" type="matrix" values="0 0 0 0 0 0 0 0 0 0 0 0 0 0 0 0 0 0 127 0" result="hardAlpha"/>
<feOffset/>
<feGaussianBlur stdDeviation="10"/>
<feComposite in2="hardAlpha" operator="out"/>
<feColorMatrix type="matrix" values="0 0 0 0 0.0745098 0 0 0 0 0.556863 0 0 0 0 1 0 0 0 0.25 0"/>
<feBlend mode="normal" in2="BackgroundImageFix" result="effect1_dropShadow_207_1415"/>
<feBlend mode="normal" in="SourceGraphic" in2="effect1_dropShadow_207_1415" result="shape"/>
</filter>
<filter id="filter1_f_207_1415" x="-77.2783" y="163.777" width="326.945" height="136.023" filterUnits="userSpaceOnUse" color-interpolation-filters="sRGB">
<feFlood flood-opacity="0" result="BackgroundImageFix"/>
<feBlend mode="normal" in="SourceGraphic" in2="BackgroundImageFix" result="shape"/>
<feGaussianBlur stdDeviation="7" result="effect1_foregroundBlur_207_1415"/>
</filter>
<filter id="filter2_bd_207_1415" x="0.121307" y="54.8518" width="316.045" height="246.148" filterUnits="userSpaceOnUse" color-interpolation-filters="sRGB">
<feFlood flood-opacity="0" result="BackgroundImageFix"/>
<feGaussianBlur in="BackgroundImageFix" stdDeviation="7"/>
<feComposite in2="SourceAlpha" operator="in" result="effect1_backgroundBlur_207_1415"/>
<feColorMatrix in="SourceAlpha" type="matrix" values="0 0 0 0 0 0 0 0 0 0 0 0 0 0 0 0 0 0 127 0" result="hardAlpha"/>
<feOffset dx="-21" dy="15"/>
<feGaussianBlur stdDeviation="25"/>
<feComposite in2="hardAlpha" operator="out"/>
<feColorMatrix type="matrix" values="0 0 0 0 0.113438 0 0 0 0 0.148981 0 0 0 0 0.275 0 0 0 0.25 0"/>
<feBlend mode="normal" in2="effect1_backgroundBlur_207_1415" result="effect2_dropShadow_207_1415"/>
<feBlend mode="normal" in="SourceGraphic" in2="effect2_dropShadow_207_1415" result="shape"/>
</filter>
<linearGradient id="paint0_linear_207_1415" x1="123" y1="20" x2="123" y2="168" gradientUnits="userSpaceOnUse">
<stop stop-color="#138EFF"/>
<stop offset="1" stop-color="#00E0FF"/>
</linearGradient>
<linearGradient id="paint1_linear_207_1415" x1="122.62" y1="22.0243" x2="122.62" y2="170.241" gradientUnits="userSpaceOnUse">
<stop stop-color="#FFD600"/>
<stop offset="1" stop-color="#FF7A00"/>
</linearGradient>
<linearGradient id="paint2_linear_207_1415" x1="189.192" y1="94.2481" x2="189.192" y2="252.514" gradientUnits="userSpaceOnUse">
<stop stop-color="white"/>
<stop offset="1" stop-color="white" stop-opacity="0"/>
</linearGradient>
<linearGradient id="paint3_linear_207_1415" x1="179.144" y1="89.8518" x2="179.144" y2="236" gradientUnits="userSpaceOnUse">
<stop stop-color="white"/>
<stop offset="1" stop-color="white" stop-opacity="0"/>
</linearGradient>
</defs>
</svg>
