<svg width="327" height="267" viewBox="0 0 327 267" fill="none" xmlns="http://www.w3.org/2000/svg">
<g filter="url(#filter0_f_214_1475)">
<circle cx="205.62" cy="120.62" r="76.6203" fill="#FFC701" fill-opacity="0.5"/>
</g>
<circle cx="205.62" cy="123.132" r="73.1083" fill="url(#paint0_linear_214_1475)" stroke="url(#paint1_linear_214_1475)" stroke-width="2"/>
<mask id="mask0_214_1475" style="mask-type:alpha" maskUnits="userSpaceOnUse" x="48" y="29" width="149" height="108">
<path d="M196.729 62.1324C196.729 103.061 163.549 136.241 122.62 136.241C81.6914 136.241 48.512 103.061 48.512 62.1324C48.512 21.2036 76.0391 30.7306 116.968 30.7306C157.897 30.7306 196.729 21.2036 196.729 62.1324Z" fill="url(#paint2_linear_214_1475)"/>
</mask>
<g mask="url(#mask0_214_1475)">
<g filter="url(#filter1_f_214_1475)">
<path fill-rule="evenodd" clip-rule="evenodd" d="M235.667 197.788C235.667 227.617 211.485 251.799 181.656 251.799C181.446 251.799 181.237 251.798 181.028 251.795V251.799H-8.63897L-8.63657 251.796C-8.84651 251.798 -9.05673 251.8 -9.26723 251.8C-39.0967 251.8 -63.2783 227.618 -63.2783 197.789C-63.2783 167.959 -39.0967 143.777 -9.26723 143.777C16.4449 143.777 37.9606 161.744 43.4104 185.808L61.7011 162.618L118.852 143.777H181.028V143.78C181.237 143.778 181.446 143.777 181.656 143.777C211.485 143.777 235.667 167.958 235.667 197.788Z" fill="#E18700"/>
</g>
</g>
<g filter="url(#filter2_bd_214_1475)">
<mask id="path-5-inside-1_214_1475" fill="white">
<path fill-rule="evenodd" clip-rule="evenodd" d="M247.678 201.997C247.829 201.999 247.981 202 248.133 202C269.69 202 287.166 184.524 287.166 162.967C287.166 141.409 269.69 123.933 248.133 123.933C247.981 123.933 247.829 123.934 247.678 123.936V123.933H237.595C237.959 121.262 238.147 118.535 238.147 115.763C238.147 82.6751 211.324 55.8518 178.236 55.8518C145.147 55.8518 118.324 82.6751 118.324 115.763C118.324 118.886 118.563 121.952 119.023 124.945C116.174 124.283 113.205 123.933 110.155 123.933C88.5971 123.933 71.1213 141.409 71.1213 162.967C71.1213 184.524 88.5971 202 110.155 202C110.307 202 110.458 201.999 110.61 201.997L110.608 202H247.678V201.997Z"/>
</mask>
<path fill-rule="evenodd" clip-rule="evenodd" d="M247.678 201.997C247.829 201.999 247.981 202 248.133 202C269.69 202 287.166 184.524 287.166 162.967C287.166 141.409 269.69 123.933 248.133 123.933C247.981 123.933 247.829 123.934 247.678 123.936V123.933H237.595C237.959 121.262 238.147 118.535 238.147 115.763C238.147 82.6751 211.324 55.8518 178.236 55.8518C145.147 55.8518 118.324 82.6751 118.324 115.763C118.324 118.886 118.563 121.952 119.023 124.945C116.174 124.283 113.205 123.933 110.155 123.933C88.5971 123.933 71.1213 141.409 71.1213 162.967C71.1213 184.524 88.5971 202 110.155 202C110.307 202 110.458 201.999 110.61 201.997L110.608 202H247.678V201.997Z" fill="url(#paint3_linear_214_1475)" shape-rendering="crispEdges"/>
<path d="M247.678 201.997L247.701 199.998C247.166 199.991 246.652 200.199 246.272 200.575C245.892 200.951 245.678 201.463 245.678 201.997H247.678ZM247.678 123.936H245.678C245.678 124.47 245.892 124.983 246.272 125.358C246.652 125.734 247.166 125.942 247.701 125.936L247.678 123.936ZM247.678 123.933H249.678C249.678 122.829 248.782 121.933 247.678 121.933V123.933ZM237.595 123.933L235.613 123.663C235.535 124.236 235.708 124.814 236.088 125.249C236.468 125.684 237.017 125.933 237.595 125.933V123.933ZM119.023 124.945L118.571 126.894C119.217 127.044 119.896 126.863 120.383 126.412C120.87 125.961 121.101 125.297 121 124.641L119.023 124.945ZM110.61 201.997L112.179 203.237C112.657 202.632 112.745 201.807 112.405 201.115C112.065 200.423 111.358 199.989 110.587 199.998L110.61 201.997ZM110.608 202L109.038 200.76C108.563 201.362 108.474 202.182 108.808 202.872C109.142 203.562 109.841 204 110.608 204V202ZM247.678 202V204C248.782 204 249.678 203.105 249.678 202H247.678ZM247.655 203.997C247.814 203.999 247.973 204 248.133 204V200C247.988 200 247.844 199.999 247.701 199.998L247.655 203.997ZM248.133 204C270.795 204 289.166 185.629 289.166 162.967H285.166C285.166 183.42 268.586 200 248.133 200V204ZM289.166 162.967C289.166 140.305 270.795 121.933 248.133 121.933V125.933C268.586 125.933 285.166 142.514 285.166 162.967H289.166ZM248.133 121.933C247.973 121.933 247.814 121.934 247.655 121.936L247.701 125.936C247.844 125.934 247.988 125.933 248.133 125.933V121.933ZM245.678 123.933V123.936H249.678V123.933H245.678ZM237.595 125.933H247.678V121.933H237.595V125.933ZM239.576 124.204C239.953 121.443 240.147 118.625 240.147 115.763H236.147C236.147 118.444 235.965 121.081 235.613 123.663L239.576 124.204ZM240.147 115.763C240.147 81.5705 212.428 53.8518 178.236 53.8518V57.8518C210.219 57.8518 236.147 83.7797 236.147 115.763H240.147ZM178.236 53.8518C144.043 53.8518 116.324 81.5705 116.324 115.763H120.324C120.324 83.7797 146.252 57.8518 178.236 57.8518V53.8518ZM116.324 115.763C116.324 118.988 116.571 122.156 117.047 125.249L121 124.641C120.555 121.748 120.324 118.783 120.324 115.763H116.324ZM119.476 122.997C116.479 122.301 113.359 121.933 110.155 121.933V125.933C113.052 125.933 115.869 126.266 118.571 126.894L119.476 122.997ZM110.155 121.933C87.4926 121.933 69.1213 140.305 69.1213 162.967H73.1213C73.1213 142.514 89.7017 125.933 110.155 125.933V121.933ZM69.1213 162.967C69.1213 185.629 87.4926 204 110.155 204V200C89.7017 200 73.1213 183.42 73.1213 162.967H69.1213ZM110.155 204C110.314 204 110.473 203.999 110.633 203.997L110.587 199.998C110.443 199.999 110.299 200 110.155 200V204ZM112.177 203.239L112.179 203.237L109.04 200.758L109.038 200.76L112.177 203.239ZM247.678 200H110.608V204H247.678V200ZM245.678 201.997V202H249.678V201.997H245.678Z" fill="url(#paint4_linear_214_1475)" mask="url(#path-5-inside-1_214_1475)"/>
</g>
<defs>
<filter id="filter0_f_214_1475" x="85" y="0" width="241.241" height="241.241" filterUnits="userSpaceOnUse" color-interpolation-filters="sRGB">
<feFlood flood-opacity="0" result="BackgroundImageFix"/>
<feBlend mode="normal" in="SourceGraphic" in2="BackgroundImageFix" result="shape"/>
<feGaussianBlur stdDeviation="22" result="effect1_foregroundBlur_214_1475"/>
</filter>
<filter id="filter1_f_214_1475" x="-77.2783" y="129.777" width="326.945" height="136.023" filterUnits="userSpaceOnUse" color-interpolation-filters="sRGB">
<feFlood flood-opacity="0" result="BackgroundImageFix"/>
<feBlend mode="normal" in="SourceGraphic" in2="BackgroundImageFix" result="shape"/>
<feGaussianBlur stdDeviation="7" result="effect1_foregroundBlur_214_1475"/>
</filter>
<filter id="filter2_bd_214_1475" x="0.121338" y="20.8518" width="316.045" height="246.148" filterUnits="userSpaceOnUse" color-interpolation-filters="sRGB">
<feFlood flood-opacity="0" result="BackgroundImageFix"/>
<feGaussianBlur in="BackgroundImageFix" stdDeviation="7"/>
<feComposite in2="SourceAlpha" operator="in" result="effect1_backgroundBlur_214_1475"/>
<feColorMatrix in="SourceAlpha" type="matrix" values="0 0 0 0 0 0 0 0 0 0 0 0 0 0 0 0 0 0 127 0" result="hardAlpha"/>
<feOffset dx="-21" dy="15"/>
<feGaussianBlur stdDeviation="25"/>
<feComposite in2="hardAlpha" operator="out"/>
<feColorMatrix type="matrix" values="0 0 0 0 0.113438 0 0 0 0 0.148981 0 0 0 0 0.275 0 0 0 0.25 0"/>
<feBlend mode="normal" in2="effect1_backgroundBlur_214_1475" result="effect2_dropShadow_214_1475"/>
<feBlend mode="normal" in="SourceGraphic" in2="effect2_dropShadow_214_1475" result="shape"/>
</filter>
<linearGradient id="paint0_linear_214_1475" x1="205.62" y1="49.0242" x2="205.62" y2="197.241" gradientUnits="userSpaceOnUse">
<stop stop-color="#FFE600"/>
<stop offset="1" stop-color="#FF7A00"/>
</linearGradient>
<linearGradient id="paint1_linear_214_1475" x1="205.62" y1="49.0242" x2="205.62" y2="197.241" gradientUnits="userSpaceOnUse">
<stop stop-color="white"/>
<stop offset="1" stop-color="white" stop-opacity="0"/>
</linearGradient>
<linearGradient id="paint2_linear_214_1475" x1="122.62" y1="-11.9758" x2="122.62" y2="136.241" gradientUnits="userSpaceOnUse">
<stop stop-color="#FFD600"/>
<stop offset="1" stop-color="#FF7A00"/>
</linearGradient>
<linearGradient id="paint3_linear_214_1475" x1="189.192" y1="60.2481" x2="189.192" y2="218.514" gradientUnits="userSpaceOnUse">
<stop stop-color="white"/>
<stop offset="1" stop-color="white" stop-opacity="0"/>
</linearGradient>
<linearGradient id="paint4_linear_214_1475" x1="179.144" y1="55.8518" x2="179.144" y2="202" gradientUnits="userSpaceOnUse">
<stop stop-color="white"/>
<stop offset="1" stop-color="white" stop-opacity="0"/>
</linearGradient>
</defs>
</svg>
