<svg width="317" height="275" viewBox="0 0 317 275" fill="none" xmlns="http://www.w3.org/2000/svg">
<g filter="url(#filter0_f_214_1475)">
<circle cx="147.62" cy="120.62" r="76.6203" fill="#FF9900" fill-opacity="0.46"/>
</g>
<circle cx="147.62" cy="123.132" r="73.1083" fill="url(#paint0_linear_214_1475)" stroke="url(#paint1_linear_214_1475)" stroke-width="2"/>
<mask id="mask0_214_1475" style="mask-type:alpha" maskUnits="userSpaceOnUse" x="48" y="37" width="149" height="108">
<path d="M196.729 70.1324C196.729 111.061 163.549 144.241 122.62 144.241C81.6914 144.241 48.512 111.061 48.512 70.1324C48.512 29.2036 76.0391 38.7306 116.968 38.7306C157.897 38.7306 196.729 29.2036 196.729 70.1324Z" fill="url(#paint2_linear_214_1475)"/>
</mask>
<g mask="url(#mask0_214_1475)">
<g filter="url(#filter1_f_214_1475)">
<path fill-rule="evenodd" clip-rule="evenodd" d="M235.667 205.788C235.667 235.617 211.485 259.799 181.656 259.799C181.446 259.799 181.237 259.798 181.028 259.795V259.799H-8.63897L-8.63657 259.796C-8.84651 259.798 -9.05673 259.8 -9.26723 259.8C-39.0967 259.8 -63.2783 235.618 -63.2783 205.789C-63.2783 175.959 -39.0967 151.777 -9.26723 151.777C16.4449 151.777 37.9606 169.744 43.4104 193.808L61.7011 170.618L118.852 151.777H181.028V151.78C181.237 151.778 181.446 151.777 181.656 151.777C211.485 151.777 235.667 175.958 235.667 205.788Z" fill="#E18700"/>
</g>
</g>
<g filter="url(#filter2_bd_214_1475)">
<mask id="path-5-inside-1_214_1475" fill="white">
<path fill-rule="evenodd" clip-rule="evenodd" d="M247.678 209.997C247.829 209.999 247.981 210 248.133 210C269.69 210 287.166 192.524 287.166 170.967C287.166 149.409 269.69 131.933 248.133 131.933C247.981 131.933 247.829 131.934 247.678 131.936V131.933H237.595C237.959 129.262 238.147 126.535 238.147 123.763C238.147 90.6751 211.324 63.8518 178.236 63.8518C145.147 63.8518 118.324 90.6751 118.324 123.763C118.324 126.886 118.563 129.952 119.023 132.945C116.174 132.283 113.205 131.933 110.155 131.933C88.5971 131.933 71.1213 149.409 71.1213 170.967C71.1213 192.524 88.5971 210 110.155 210C110.307 210 110.458 209.999 110.61 209.997L110.608 210H247.678V209.997Z"/>
</mask>
<path fill-rule="evenodd" clip-rule="evenodd" d="M247.678 209.997C247.829 209.999 247.981 210 248.133 210C269.69 210 287.166 192.524 287.166 170.967C287.166 149.409 269.69 131.933 248.133 131.933C247.981 131.933 247.829 131.934 247.678 131.936V131.933H237.595C237.959 129.262 238.147 126.535 238.147 123.763C238.147 90.6751 211.324 63.8518 178.236 63.8518C145.147 63.8518 118.324 90.6751 118.324 123.763C118.324 126.886 118.563 129.952 119.023 132.945C116.174 132.283 113.205 131.933 110.155 131.933C88.5971 131.933 71.1213 149.409 71.1213 170.967C71.1213 192.524 88.5971 210 110.155 210C110.307 210 110.458 209.999 110.61 209.997L110.608 210H247.678V209.997Z" fill="url(#paint3_linear_214_1475)" shape-rendering="crispEdges"/>
<path d="M247.678 209.997L247.701 207.998C247.166 207.991 246.652 208.199 246.272 208.575C245.892 208.951 245.678 209.463 245.678 209.997H247.678ZM247.678 131.936H245.678C245.678 132.47 245.892 132.983 246.272 133.358C246.652 133.734 247.166 133.942 247.701 133.936L247.678 131.936ZM247.678 131.933H249.678C249.678 130.829 248.782 129.933 247.678 129.933V131.933ZM237.595 131.933L235.613 131.663C235.535 132.236 235.708 132.814 236.088 133.249C236.468 133.684 237.017 133.933 237.595 133.933V131.933ZM119.023 132.945L118.571 134.894C119.217 135.044 119.896 134.863 120.383 134.412C120.87 133.961 121.101 133.297 121 132.641L119.023 132.945ZM110.61 209.997L112.179 211.237C112.657 210.632 112.745 209.807 112.405 209.115C112.065 208.423 111.358 207.989 110.587 207.998L110.61 209.997ZM110.608 210L109.038 208.76C108.563 209.362 108.474 210.182 108.808 210.872C109.142 211.562 109.841 212 110.608 212V210ZM247.678 210V212C248.782 212 249.678 211.105 249.678 210H247.678ZM247.655 211.997C247.814 211.999 247.973 212 248.133 212V208C247.988 208 247.844 207.999 247.701 207.998L247.655 211.997ZM248.133 212C270.795 212 289.166 193.629 289.166 170.967H285.166C285.166 191.42 268.586 208 248.133 208V212ZM289.166 170.967C289.166 148.305 270.795 129.933 248.133 129.933V133.933C268.586 133.933 285.166 150.514 285.166 170.967H289.166ZM248.133 129.933C247.973 129.933 247.814 129.934 247.655 129.936L247.701 133.936C247.844 133.934 247.988 133.933 248.133 133.933V129.933ZM245.678 131.933V131.936H249.678V131.933H245.678ZM237.595 133.933H247.678V129.933H237.595V133.933ZM239.576 132.204C239.953 129.443 240.147 126.625 240.147 123.763H236.147C236.147 126.444 235.965 129.081 235.613 131.663L239.576 132.204ZM240.147 123.763C240.147 89.5705 212.428 61.8518 178.236 61.8518V65.8518C210.219 65.8518 236.147 91.7797 236.147 123.763H240.147ZM178.236 61.8518C144.043 61.8518 116.324 89.5705 116.324 123.763H120.324C120.324 91.7797 146.252 65.8518 178.236 65.8518V61.8518ZM116.324 123.763C116.324 126.988 116.571 130.156 117.047 133.249L121 132.641C120.555 129.748 120.324 126.783 120.324 123.763H116.324ZM119.476 130.997C116.479 130.301 113.359 129.933 110.155 129.933V133.933C113.052 133.933 115.869 134.266 118.571 134.894L119.476 130.997ZM110.155 129.933C87.4926 129.933 69.1213 148.305 69.1213 170.967H73.1213C73.1213 150.514 89.7017 133.933 110.155 133.933V129.933ZM69.1213 170.967C69.1213 193.629 87.4926 212 110.155 212V208C89.7017 208 73.1213 191.42 73.1213 170.967H69.1213ZM110.155 212C110.314 212 110.473 211.999 110.633 211.997L110.587 207.998C110.443 207.999 110.299 208 110.155 208V212ZM112.177 211.239L112.179 211.237L109.04 208.758L109.038 208.76L112.177 211.239ZM247.678 208H110.608V212H247.678V208ZM245.678 209.997V210H249.678V209.997H245.678Z" fill="url(#paint4_linear_214_1475)" mask="url(#path-5-inside-1_214_1475)"/>
</g>
<defs>
<filter id="filter0_f_214_1475" x="27" y="0" width="241.241" height="241.241" filterUnits="userSpaceOnUse" color-interpolation-filters="sRGB">
<feFlood flood-opacity="0" result="BackgroundImageFix"/>
<feBlend mode="normal" in="SourceGraphic" in2="BackgroundImageFix" result="shape"/>
<feGaussianBlur stdDeviation="22" result="effect1_foregroundBlur_214_1475"/>
</filter>
<filter id="filter1_f_214_1475" x="-77.2783" y="137.777" width="326.945" height="136.023" filterUnits="userSpaceOnUse" color-interpolation-filters="sRGB">
<feFlood flood-opacity="0" result="BackgroundImageFix"/>
<feBlend mode="normal" in="SourceGraphic" in2="BackgroundImageFix" result="shape"/>
<feGaussianBlur stdDeviation="7" result="effect1_foregroundBlur_214_1475"/>
</filter>
<filter id="filter2_bd_214_1475" x="0.121338" y="28.8518" width="316.045" height="246.148" filterUnits="userSpaceOnUse" color-interpolation-filters="sRGB">
<feFlood flood-opacity="0" result="BackgroundImageFix"/>
<feGaussianBlur in="BackgroundImageFix" stdDeviation="7"/>
<feComposite in2="SourceAlpha" operator="in" result="effect1_backgroundBlur_214_1475"/>
<feColorMatrix in="SourceAlpha" type="matrix" values="0 0 0 0 0 0 0 0 0 0 0 0 0 0 0 0 0 0 127 0" result="hardAlpha"/>
<feOffset dx="-21" dy="15"/>
<feGaussianBlur stdDeviation="25"/>
<feComposite in2="hardAlpha" operator="out"/>
<feColorMatrix type="matrix" values="0 0 0 0 0.113438 0 0 0 0 0.148981 0 0 0 0 0.275 0 0 0 0.25 0"/>
<feBlend mode="normal" in2="effect1_backgroundBlur_214_1475" result="effect2_dropShadow_214_1475"/>
<feBlend mode="normal" in="SourceGraphic" in2="effect2_dropShadow_214_1475" result="shape"/>
</filter>
<linearGradient id="paint0_linear_214_1475" x1="147.62" y1="49.0242" x2="147.62" y2="197.241" gradientUnits="userSpaceOnUse">
<stop stop-color="#FFC700"/>
<stop offset="1" stop-color="#FF7A00"/>
</linearGradient>
<linearGradient id="paint1_linear_214_1475" x1="147.62" y1="49.0242" x2="147.62" y2="197.241" gradientUnits="userSpaceOnUse">
<stop stop-color="white"/>
<stop offset="1" stop-color="white" stop-opacity="0"/>
</linearGradient>
<linearGradient id="paint2_linear_214_1475" x1="122.62" y1="-3.97582" x2="122.62" y2="144.241" gradientUnits="userSpaceOnUse">
<stop stop-color="#FFD600"/>
<stop offset="1" stop-color="#FF7A00"/>
</linearGradient>
<linearGradient id="paint3_linear_214_1475" x1="189.192" y1="68.2481" x2="189.192" y2="226.514" gradientUnits="userSpaceOnUse">
<stop stop-color="white"/>
<stop offset="1" stop-color="white" stop-opacity="0"/>
</linearGradient>
<linearGradient id="paint4_linear_214_1475" x1="179.144" y1="63.8518" x2="179.144" y2="210" gradientUnits="userSpaceOnUse">
<stop stop-color="white"/>
<stop offset="1" stop-color="white" stop-opacity="0"/>
</linearGradient>
</defs>
</svg>
